<?xml version="1.0"?><svg version="1.2" baseProfile="tiny-ps" viewBox="0 0 300 300" xmlns="http://www.w3.org/2000/svg" xmlns:xlink="http://www.w3.org/1999/xlink"><title>TEFÍA EN TEATRO</title><g><g fill="#f5f5f6" transform="matrix(.1 0 0 -.1 0 300)"><path d="M0 1500V0h3000v3000H0V1500z"/></g><g fill="#baabc2" transform="matrix(.1 0 0 -.1 0 300)"><path d="M0 1500V0h3000v3000H0V1500zm1365 660-19-21-13 6-14 5 5-9 6-8-19-17-19-17-26 3-26 3 25 38 26 37h92l-18-20zm-681-16c3-9 6-28 6-44v-29l-37-3-38-3-3-197-2-198H490l-2 198-3 197-37 3-37 3 1 45 1 44h265l6-16zm246-29v-45h-80v-100l25-1c14-1 31-2 38-3l12-1 3-42 3-43h-81v-110h-22c-13 0-42-9-65-20l-43-19v429h210v-45zm254 39 16-6v-78h-90v-97l40-7 40-6v-80h-80v-210H990v490h89c49 0 96-3 105-6zm441-16c3-13 20-123 38-245l33-223h-125l-3 43-3 42-27 3-27 3-3-43-3-43-62-3-63-3v9c0 13 49 371 54 397 3 11 5 35 5 53l1 32h180l5-22zm-275-268v-200h-119l-1 200v200h120v-200zm598 63 3-23h-51v-70h40v-50h-38l-5-14c-3-8-3-24 0-35l5-21h48v-50h-128l-1 145-2 146 63-3 63-3 3-22zm116-38 21-60 3 63 3 62h59v-290h-67l-19 63-19 62-3-62-3-63h-59v291l32-3 31-3 21-60zM940 1715v-45h-62l-63 1 30 13c17 7 38 23 48 34l19 21-7 10-6 11h41v-45zm1614-201c13-11 29-29 35-42l11-23v-337l-26-31-25-31-41-11-41-11-36 7c-20 4-48 14-63 23l-27 16-13 30-13 31v321l18 28 19 28 31 14 32 14 57-4 57-4 25-18zm-1444-28v-45l-37-3-38-3-3-197-2-198H910l2 192 3 192 25 6 25 6-17 7-17 6-51-6-50-6v93h280v-44zm240-1v-45h-80v-100l41-6 40-7-3-36-3-36-37-3-38-3v-119h90v-90h-208l-5 13c-3 7-3 110-1 228 3 118 4 222 4 232v17h200v-45zm271 43c0-2 17-112 38-245l37-243h-125l-3 43-3 42-27 3-28 3v-30c0-16-3-36-6-45l-6-16h-120l6 43c3 23 11 80 17 127l12 85 10-28 9-29-11-11c-14-14-14-27 0-27h10l-6 10-6 10h10c6 0 11 6 11 14s8 22 17 32l17 16-19 14-19 14-14-5-13-5 5 18c3 9 10 61 17 115l12 97h89c48 0 88-1 89-2zm319-43v-45h-70l-1-72c0-40 0-130 1-200l1-128h-131v400h-70v90h270v-45zm287 13 26-26 5-51c2-27 2-62-2-76l-7-26-24-11-24-11 30-24 29-25v-208h-110v94c0 52-3 101-6 110l-6 16h-38v-182l-15 6c-8 3-22 3-30 0l-15-6v-30l15 6c8 3 22 9 30 12l15 6v-31h-60l-60 1v491l111-5 110-5 26-25zM475 2140l6-10 10 5c14 9 11 15-7 15h-15l6-10zm50-220c7-12 45-14 45-2 0 4-11 9-26 10l-25 2 6-10zm15-220-15-10h15c8 0 22 5 30 10l15 10h-15c-8 0-22-5-30-10zm968 351c-18-17-24-41-12-41 4 0 13 8 21 18l14 17-5-55c-3-30-9-76-12-102l-7-48h55l-7 78c-3 42-9 88-12 102-4 14-5 31-4 38 3 17-11 14-31-7zm107-91-6-10h10c6 0 11 5 11 10 0 6-2 10-4 10-3 0-8-4-11-10zm-305-130c0-5 5-10 10-10 6 0 10 5 10 10 0 6-4 10-10 10-5 0-10-4-10-10zm1126-401c-3-17-6-46-6-64v-33l-12-5-13-5 16-1 16-1-1-99-1-99 7-7 7-7 16 5 15 6v341h-37l-7-31zm-1201-89-6-10h10c6 0 11 5 11 10 0 6-2 10-4 10-3 0-8-4-11-10zm-27-47c6-2 18-2 25 0l12 5h-50l13-5zm-8-98-12-15h10c12 0 26 19 19 26-2 2-10-2-17-11zm321 128c-6-49-11-95-11-101v-12h51l-7 88c-4 48-10 93-14 101l-7 13-12-89zm621 182-13-15h31v15c0 18-2 18-18 0zm-42-110v-55h38l6 16c3 9 6 28 6 43v27l-12 12c-7 7-18 12-25 12h-13v-55z"/></g><g fill="#a70cfc" transform="matrix(.1 0 0 -.1 0 300)"><path d="M0 1500V0h3000v3000H0V1500zm1350 640-45-39-32-1c-18 0-33 2-33 4 0 3 9 21 21 40l21 36h113l-45-40zm-660-30v-50h-70v-390H480v390h-70v100h280v-50zm248 3-3-48-42-3-43-3v-89h80v-100h-80v-98l-50-12c-28-7-53-16-56-21s-9-9-15-9h-9v430h221l-3-47zm262-3v-50h-90v-90h80v-100h-80v-200H980v490h220v-50zm459-167c18-120 36-230 38-245l6-28h-131l-6 16c-3 9-6 27-6 40v24h-38l-6-16c-3-9-6-27-6-40v-24h-140l5 23c2 12 16 108 30 212 14 105 27 205 30 223l6 32h185l33-217zm-299-73v-200h-130v400h130v-200zm590 65v-35h-50v-50h50v-60h-50v-60h60v-60h-140v143c0 79 3 147 7 150 3 4 33 7 65 7h58v-35zm111-20 17-50 7 53 8 52h57v-300h-68l-19 53-18 52-3-52-3-53h-59v301l32-3 31-3 18-50zM944 1754c3-9 6-31 6-50v-34h-77l-78 1 38 13c65 24 86 54 50 75l-18 10 36 1h37l6-16zm1604-234 33-20 15-35 14-34-1-143v-143l-12-35-12-34-34-23-34-23h-112l-32 20-32 19-16 31-16 32 3 170 3 170 37 34 38 34h125l33-20zm-1438-40v-50h-70v-390H899l5 195 6 195h-80v100h280v-50zm250 0v-50h-90v-90h80v-90l-40-6-40-7v-97h100l1-47 1-48 33 240c19 132 34 241 34 243 1 1 44 2 96 2h95v-11c0-6 16-114 35-240 19-127 35-232 35-234 0-3-29-5-65-5h-65l-6 41-7 40-21-3-21-3-3-37-3-37-168-3c-93-2-176-2-185 0l-16 3v489h220v-50zm590 0v-50h-80v-390h-130v390h-80v100h290v-50zm254 40c14-5 32-20 41-34l17-25v-54c0-29-2-63-6-75l-7-21-19-6-20-6 25-22 25-22 7-107 6-108h-132l-3 107-3 106-12 5-13 4v-222h-130v178c0 97-3 207-7 245l-6 67h212l25-10zm-677 440c-4-30-7-70-7-87v-33h37l-5 53c-2 28-7 68-11 87l-7 35-7-55zm920-507c-9-8-9-328 0-336l6-7 14 11 13 11v148c0 167-6 200-33 173zm-920-123c-4-30-7-70-7-87v-33h39l-6 58c-3 31-8 71-12 87l-7 30-7-55zm583 59v-51l13 4 12 5 3 46 3 47h-31v-51z"/></g><g fill="#57386b" transform="matrix(.1 0 0 -.1 0 300)"><path d="M0 1500V0h3000v3000H0V1500zm1350 640-45-39-32-1c-18 0-33 2-33 4 0 3 9 21 21 40l21 36h113l-45-40zm-660-30v-50h-70v-390H480v390h-70v100h280v-50zm248 3-3-48-42-3-43-3v-89h80v-100h-80v-100h88l6-16c3-9 6-31 6-50v-34h-87c-49 0-93-4-99-8s-18-21-27-38-47-65-86-108l-70-77-7-34-6-33 17-26 17-26 62-40 61-41 53-15 53-16 37 9 37 9 1 102 2 102h-78v100h280v-100h-71l3-106 3-107 48-12 47-12v337h220v-100h-90v-90h80v-90l-40-6-40-7v-97h100l1-47 1-48 33 240c19 132 34 241 34 243 1 1 44 2 96 2h95v-11c0-6 16-114 35-240 19-127 35-232 35-234 0-3-29-5-65-5h-65l-6 41-7 40-21-3-21-3-3-37-3-38h-194l33-26c17-14 37-35 43-46l11-20-18-19-17-19h-54l-39 29c-21 16-55 45-73 65-19 20-41 36-48 36h-13v28l-34 16c-19 9-41 16-50 16h-16v-47l50-31 50-31 22-48 23-48 58-31c32-17 65-38 74-46l16-16-6-24-7-25-25-11-25-11-17 6c-10 3-52 38-93 77-92 87-189 157-272 196l-62 30-96-3-95-2-45 28c-25 15-62 41-82 58l-37 32-15-6-16-6v-27c0-15 5-56 11-90l11-64 31-31c18-17 46-38 62-46 17-8 40-25 53-36l22-20v-35l-16-6c-9-3-33-6-54-6h-38l-48 33-49 32-35 69-35 69 1 111 1 111 22 63c12 35 19 67 16 71-2 5-23 11-46 15-55 9-92 29-114 62l-18 27-1 39-1 38 28 27 27 28h109l28-21 28-20 18-37c10-20 23-37 27-37 5 0 43 42 83 93 41 50 93 110 116 132l41 39v436h221l-3-47zm262-3v-50h-90v-90h80v-100h-80v-200H980v490h220v-50zm459-167c18-120 36-230 38-245l6-28h-131l-6 16c-3 9-6 27-6 40v24h-38l-6-16c-3-9-6-27-6-40v-24h-140l5 23c2 12 16 108 30 212 14 105 27 205 30 223l6 32h185l33-217zm-299-73v-200h-130v400h130v-200zm590 65v-35h-50v-50h50v-60h-50v-60h60v-60h-140v143c0 79 3 147 7 150 3 4 33 7 65 7h58v-35zm111-20 17-50 7 53 8 52h57v-300h-68l-19 53-18 52-3-52-3-53h-59v301l32-3 31-3 18-50zm487-395 33-20 15-35 14-34-1-143v-143l-12-35-12-34-34-23-34-23h-112l-32 20-32 19-16 31-16 32 3 170 3 170 37 34 38 34h125l33-20zm-598-40v-50h-80v-390h-130v390h-80v100h290v-50zm254 40c14-5 32-20 41-34l17-25v-54c0-29-2-63-6-75l-7-21-19-6-20-6 25-22 25-22 7-107 6-108h-132l-3 107-3 106-12 5-13 4v-222h-130v178c0 97-3 207-7 245l-6 67h212l25-10zm-677-190c-4-30-7-70-7-87v-33h39l-6 58c-3 31-8 71-12 87l-7 30-7-55zm0 630c-4-30-7-70-7-87v-33h37l-5 53c-2 28-7 68-11 87l-7 35-7-55zm920-507c-9-8-9-328 0-336l6-7 14 11 13 11v148c0 167-6 200-33 173zm-337-64v-51l13 4 12 5 3 46 3 47h-31v-51z"/></g><g fill="#311c3f" transform="matrix(.1 0 0 -.1 0 300)"><path d="M0 1500V0h3000v3000H0V1500zm1399 683c0-5-23-27-52-50l-51-43h-33c-18 0-33 3-33 6 0 4 12 26 28 50l27 44h115l-1-7zm-711-22 13-8-3-49-3-49-37-3-38-3v-389H480l-2 198-3 197-37 3-38 3v98l23 4c12 2 74 5 137 5l115 2 13-9zm247-51v-55l-37-3-38-3v-67l41-7 40-7-3-46-3-47-37-3-38-3v-70l15-5 15-6-7-11-6-10 42 6c24 3 44 7 46 9s6 86 9 186 8 187 11 192l6 10h184l13-9 14-8 1-49 2-49-42-3-43-3v-68l38-3 37-3 3-52 3-53h-81v-120h100v330h138l6-22c3-13 6-48 6-79v-57l13-11 14-11 1 13c0 6 9 65 18 129l17 118 34 6c39 7 149 1 159-9 4-4 13-44 20-89 7-46 20-132 29-192 9-61 21-118 26-128l10-18h65l19 14 18 13 5 107 5 106h125l6-25c8-32 1-45-25-45h-19v-40h40v-65l10 15 10 15v145h78l15-42 15-43 1 43 1 43 38-3 37-3 3-117 3-117 30-23c17-13 42-34 56-48l25-25-7-44c-4-24-11-51-17-61l-10-16 16-32 16-31v-53c0-29-3-63-6-75l-6-23h-29l6-10 6-10 10 5 9 6v-31h37l5 101 5 100 20 27c11 15 35 35 54 44l34 18h80l42-19 42-19 15-31 16-30v-334l-20-32-20-33-40-16c-22-9-55-16-73-16h-32l-40 19c-52 23-66 41-76 98l-9 48-15 14-15 15v-184h-130v114l-15-20-14-19-1-37v-38h-140v390h-68l-11-13-11-13-2-180-3-179h-140l-5 185-5 185h-70l2-20c1-11 9-67 18-125s19-133 22-168l6-63-69 3-69 3-3 38-3 37h-39v-24c0-13-3-31-6-40l-6-16h-160l27-31 26-32-3-21-3-21-29-14-29-13-31 15c-18 8-57 38-88 66s-61 51-67 51h-11v29l-27 14c-16 8-38 18-50 21l-23 7v-46l51-28 50-28 20-43c22-51 33-61 108-101l56-30 3-32 3-31-23-16c-12-9-32-16-44-16h-21l-83 77c-93 88-177 150-265 196l-60 32-94-3-95-2-40 21c-23 11-62 38-88 60-26 21-51 39-56 39h-10l-6-27-5-28 13-68 13-67 24-26c13-14 46-37 72-50l48-25 11-24 11-24-6-14-5-14-27-7-26-7-40 11-40 11-48 47-48 47-22 58-21 58 1 87v87l20 70c11 39 20 77 22 85l2 14-48 7-48 8-25 16c-14 9-34 30-44 48l-20 32v64l24 28 24 28h130l27-25c15-14 33-37 41-52l15-28h25l43 61c23 33 72 91 107 128l64 68v430l7 7 7 7 106-3 105-3v-55zm-287-607-57-58-11-29-11-29 6-16c9-30 68-79 138-115l68-36h119v198l-16 6c-9 3-27 6-40 6h-24v50l-40 20c-22 11-46 29-52 40-7 11-15 20-18 20s-31-26-62-57zm722-62c0-4-19-11-42-17l-43-9-3-32-3-31 40-7 41-7v-98h-80v-100h90l1-27c1-16 7 15 15 67 38 280 37 254 4 263l-20 5v-7zm-323-28c-4-3-7-48-7-99v-92l36-6c19-4 42-10 50-13l14-5v171l-10 25-10 26h-33c-19 0-37-3-40-7zm1223-178c0-8 5-15 10-15 6 0 10 7 10 15s-4 15-10 15c-5 0-10-7-10-15z"/></g><g fill="#09050b" transform="matrix(.1 0 0 -.1 0 300)"><path d="M0 1500V0h3000v3000H0V1500zm1502 820 117-9 44-19 44-19 49-58c27-31 62-64 78-72l29-15 136-8 136-7 40-17c22-9 55-31 73-49l33-32 14-50c7-27 17-81 20-119l7-68 32-36 32-35 94-14 94-14 51-28 50-28 31-46 31-45 18-72 17-71-5-132-4-132-16-50-17-51-36-42-36-43-52-27-51-27-649-2c-357-2-651-4-653-6s15-16 37-31l40-26v-53l-17-19-16-18h-57l-81 75-80 75-22 4c-12 3-56 7-97 9l-75 4-42 27-42 28-18 38-18 37H645l-42 21c-22 12-62 40-88 62-25 22-51 40-57 40h-11l6-80 6-80 16-29 15-30 56-33 57-33 21-28 21-29-24-19-23-19h-27c-14 0-44 9-66 19l-40 18-41 45-41 45-19 54-18 54 1 80v80l17 65c10 36 18 76 19 90l2 24-47 7-47 7-25 19c-13 10-31 30-40 45l-16 26v69l21 26 20 27 39 10 39 11 26-7 27-7-22 43-22 43-10 101c-5 56-19 137-30 181-22 85-33 202-24 240 3 13 18 38 33 56l27 32 46 21 45 21 390 5c215 3 431 7 480 8 50 1 143-3 207-8zM458 1504l16-34 10 3c5 2 15 12 23 24l14 20-40 10-39 10 16-33zm142-55c-7-12-16-35-20-50l-9-29 32-33c34-36 124-93 133-84 3 3-2 30-11 61l-16 56-32 47-32 48-17 3-17 3-11-22z"/></g></g></svg>